HIERARCHY
ROOT Root
{
  OFFSET -9.11166 11.8871 1.63708
  CHANNELS 6 Xposition Yposition Zposition Zrotation Xrotation Yrotation
  JOINT Spine
  {
    OFFSET 5.3114 0 0
    CHANNELS 3 Zrotation Xrotation Yrotation
    JOINT Spine1
    {
      OFFSET 2.79004 0 0
      CHANNELS 3 Zrotation Xrotation Yrotation
      JOINT Neck
      {
        OFFSET 1.43377 0 0
        CHANNELS 3 Zrotation Xrotation Yrotation
        JOINT Head
        {
          OFFSET 1.86043 0 0
          CHANNELS 3 Zrotation Xrotation Yrotation
          End Site
          {
            OFFSET 0 0 0
          }
        }
      }
      JOINT LeftArm
      {
        OFFSET 0.0387506 0 2.55754
        CHANNELS 3 Zrotation Xrotation Yrotation
        JOINT LeftForeArm
        {
          OFFSET 4.24845 0 0
          CHANNELS 3 Zrotation Xrotation Yrotation
          JOINT LeftHand
          {
            OFFSET 4.01008 0 0
            CHANNELS 3 Zrotation Xrotation Yrotation
            End Site
            {
              OFFSET 0 0 0
            }
          }
        }
      }
      JOINT RightArm
      {
        OFFSET 0.0387506 0 -2.55754
        CHANNELS 3 Zrotation Xrotation Yrotation
        JOINT RightForeArm
        {
          OFFSET -4.24845 0 0
          CHANNELS 3 Zrotation Xrotation Yrotation
          JOINT RightHand
          {
            OFFSET -4.01009 0 0
            CHANNELS 3 Zrotation Xrotation Yrotation
            End Site
            {
              OFFSET 0 0 0
            }
          }
        }
      }
    }
  }
  JOINT LeftUpLeg
  {
    OFFSET -1.23318 0 2.05692
    CHANNELS 3 Zrotation Xrotation Yrotation
    JOINT LeftLeg
    {
      OFFSET 5.46397 0 0
      CHANNELS 3 Zrotation Xrotation Yrotation
      JOINT LeftFoot
      {
        OFFSET 4.68898 0 0
        CHANNELS 3 Zrotation Xrotation Yrotation
        End Site
        {
          OFFSET 0 0 0
        }
      }
    }
  }
  JOINT RightUpLeg
  {
    OFFSET -1.24454 0 -2.05007
    CHANNELS 3 Zrotation Xrotation Yrotation
    JOINT RightLeg
    {
      OFFSET -5.46397 0 0
      CHANNELS 3 Zrotation Xrotation Yrotation
      JOINT RightFoot
      {
        OFFSET -4.68901 0 0
        CHANNELS 3 Zrotation Xrotation Yrotation
        End Site
        {
          OFFSET 0 0 0
        }
      }
    }
  }
}
MOTION
Frames:	8
Frame Time:	0.0416667
10.0286 11.991 -1.38694 95.3596 -10.6355 1.24483 -4.69337 0.0622283 2.13141 3.90414 0.0630681 1.16373 -17.5038 1.27573 -3.60647 22.4358 1.90362 -0.271545 9.10938 -22.9263 -172.683 21.819 0.516889 12.682 -0.793771 -8.99926 174.393 -171.048 -0.27326 -170.312 27.3268 1.41433 15.8135 1.6018 17.6977 174.199 -6.43925 -8.92904 -174.952 -27.3141 -1.19565 -1.14153 37.6469 -11.7675 -174.933 163.284 -6.40473 178.863 -32.0665 -0.710822 -1.31593 4.8236 11.1461 175.726 
9.99511 11.9714 -1.51891 95.5112 -11.4957 1.50199 -4.42058 -0.106002 2.10197 3.80357 0.013157 1.1762 -17.3376 1.46041 -3.34008 22.1118 2.2689 -0.743621 8.54061 -23.7128 -172.453 22.9918 0.68218 13.3535 -0.865926 -9.80049 174.38 -171.721 0.402345 -170.169 26.9814 1.349 15.6189 1.72858 18.989 174.156 -6.449 -6.77438 -174.295 -27.8793 -1.19286 -1.16063 36.6147 -11.9073 -175.135 163.013 -5.57074 178.726 -32.5486 -0.694039 -1.3283 3.12061 12.1331 176.027 
9.97358 11.9425 -1.64642 95.8443 -11.8096 1.56955 -4.01877 -0.445075 2.36439 3.62325 -0.0873891 1.10186 -17.2301 1.58945 -3.26606 21.6348 2.53921 -0.838217 7.64774 -25.1143 -172.032 24.6058 0.93262 14.2737 -0.97457 -11.0019 174.361 -171.695 -1.14654 -169.722 27.3038 1.41021 15.8004 1.53906 17.055 174.22 -8.28979 -3.71487 -173.269 -30.7968 -1.19811 -1.24017 34.5951 -11.6839 -175.915 162.506 -4.28942 178.418 -33.2727 -0.697557 -1.34579 1.65969 13.1402 176.348 
9.94859 11.9182 -1.76257 96.2294 -11.7849 1.57235 -3.52539 -0.831419 2.72745 3.66853 -0.201197 1.00451 -17.3233 1.58257 -3.05195 21.0035 2.57094 -0.958517 6.35134 -26.5695 -171.616 26.7899 1.31365 15.5109 -1.08905 -12.2579 174.338 -171.941 -2.52567 -169.102 27.8359 1.51281 16.0997 1.4735 16.3753 174.241 -11.4988 -2.3743 -172.611 -36.2011 -1.28488 -1.356 34.6543 -10.9843 -176.395 162.109 -2.92353 178.116 -33.6998 -0.720693 -1.3521 0.575676 14.0865 176.614 
9.91502 11.9029 -1.87155 96.6572 -11.4898 1.68973 -3.10555 -1.12557 2.95326 3.6349 -0.285589 1.07494 -17.3351 1.54745 -3.00077 20.7455 2.55342 -0.773542 5.06077 -28.0756 -171.473 29.4816 1.84907 17.0213 -1.23741 -13.8658 174.304 -172.492 -2.86234 -168.323 27.7727 1.50053 16.0643 1.47449 16.3869 174.242 -15.7671 -1.05571 -172.479 -42.8859 -1.39958 -1.50075 34.1645 -11.8262 -176.139 161.848 -2.11312 177.827 -33.9813 -0.763954 -1.35532 0.251778 14.6017 176.74 
9.85855 11.9 -1.97258 97.0112 -11.3211 1.93866 -2.73903 -1.04564 3.01964 3.6694 -0.264136 1.12166 -17.5955 1.42854 -2.86477 21.0871 2.37165 -0.66389 3.81054 -29.327 -171.494 32.5509 2.55035 18.72 -1.37527 -15.3407 174.269 -173.283 -2.46833 -167.608 27.4096 1.43022 15.86 1.5901 17.5852 174.205 -20.4352 0.184802 -172.595 -48.8344 -1.38587 -1.65287 31.3005 -10.6397 -177.489 161.868 -1.81024 177.611 -34.0105 -0.810871 -1.35403 0.244722 14.9656 176.803 
9.78205 11.8865 -2.06743 97.5611 -11.6877 2.35352 -2.67451 -0.518638 2.91575 3.67888 -0.11373 1.13865 -17.8569 1.33878 -2.7009 21.6516 2.23794 -0.645305 3.18704 -30.4814 -171.524 36.0144 3.45621 20.6029 -1.51608 -16.8259 174.23 -173.968 -2.77888 -167.019 26.6817 1.29341 15.4499 1.52846 16.946 174.225 -25.4268 1.09974 -173.174 -53.1949 -1.27581 -1.76782 27.068 -7.87479 -179.525 161.407 -2.31333 177.306 -34.679 -0.840372 -1.37066 1.09365 15.3335 176.748 
9.68676 11.8728 -2.15433 98.1302 -12.2765 2.79788 -2.61514 0.0830543 2.91202 3.60193 0.0539144 1.01803 -17.9703 1.3445 -2.70103 21.8106 2.24909 -0.582324 3.22422 -31.7342 -171.427 39.4439 4.47115 22.4266 -1.66036 -18.324 174.187 -174.787 -3.01048 -166.547 26.1469 1.19603 15.1468 1.58418 17.5146 174.208 -29.7333 1.79335 -174.166 -55.2553 -1.20581 -1.82366 24.217 -5.4241 179.259 161.031 -2.60664 177.145 -35.3016 -0.864927 -1.38593 1.44349 15.8485 176.828 
